<?xml version="1.0" encoding="UTF-8"?>
<svg id="_レイヤー_2" data-name="レイヤー 2" xmlns="http://www.w3.org/2000/svg" viewBox="0 0 100 91.77">
  <defs>
    <style>
      .cls-1 {
        fill: none;
      }

      .cls-2 {
        fill: #fff;
      }
    </style>
  </defs>
  <g id="_レイヤー_2-2" data-name="レイヤー 2">
    <g>
      <rect class="cls-1" width="100" height="91.77"/>
      <g id="_線" data-name=" 線">
        <g>
          <path class="cls-2" d="M36.96,35.3v1.02h1.02v-1.02h-1.02Z"/>
          <path class="cls-2" d="M64.8,44.64l-.4-.91c1.62-.61,2.5-1.95,2.5-4.31v-2.47h-7.49v3.22h-1.03v-4.24h9.55v3.48c0,2.79-1.14,4.44-3.13,5.22h0Z"/>
          <line class="cls-2" x1="37.02" y1="46.92" x2="36.01" y2="48.6"/>
          <polygon class="cls-2" points="40.79 42.77 39.78 42.34 40.59 40.98 40.79 42.77"/>
          <polygon class="cls-2" points="45.47 46.73 45.55 46.73 45.47 47.07 45.47 46.73"/>
          <path class="cls-2" d="M77.12,24.95H22.88v31.78h7.68l-2.32,3.86.82.49,2.62-4.35.58-.96,8.02-13.33.52,4.66.77.33,4.01-3.02-1.41,6.39.86.39s1.32-1.79,3.82-3.24c3.34-1.94,7.12-2.43,11.24-1.45,5.7,1.35,8.59,5.47,9.89,9.28.11.32.21.64.3.96.43,1.54.6,2.98.6,4.1h.96c0-1.13-.16-2.56-.57-4.1h5.86v-31.78h0ZM45.48,49.27l.32-1.46h1.48c-.74.51-1.34,1.02-1.8,1.46h0ZM76.16,55.77h-5.18c-1.33-4.13-4.43-8.72-10.67-10.21-1.93-.46-3.68-.57-5.25-.47v-5.69h-7.61v1.08h6.52v4.72c-1.97.27-3.61.87-4.9,1.53h-3.03l.74-3.37-.76-.48-4.38,3.29-.22-2.03.63.27.36-.95-1.12-.47-.23-2.05-.89-.2-.85,1.42-.83-.35-.37.91.69.3-1.8,2.98v-3.58c2.12-1.33,3.38-3.04,3.79-4.38v-.77h-6.46v1.02h5.3c-.87,2.17-4.18,4.52-8.19,5.13l.28,1c1.64-.28,3.06-.78,4.26-1.4v4.69l-4.87,8.09h-7.3v-29.86h52.32v29.86Z"/>
          <path class="cls-2" d="M28.31,62.54c-1.03,0-2.14.79-2.14,2.06v1.97h.97v-1.97c0-.67.5-1.17,1.15-1.17s1.15.49,1.15,1.17v1.97h.97v-1.97c0-1.22-.86-2.06-2.1-2.06Z"/>
          <path class="cls-2" d="M36.35,64.6c-.08-1.34-.94-2.18-2.24-2.18-1.21,0-2.24,1-2.24,2.18,0,1.28.92,2.18,2.24,2.18.56,0,1.09-.21,1.5-.6l-.61-.63c-.31.28-.53.37-.88.37-.6,0-1.08-.36-1.23-.91l-.02-.08h3.5v-.33h0ZM32.86,64.17l.03-.08c.19-.54.65-.87,1.21-.87.59,0,1.05.32,1.23.87l.03.08h-2.5Z"/>
          <path class="cls-2" d="M48.38,65.81c-.76,0-1.32-.58-1.32-1.34s.57-1.34,1.32-1.34c.32,0,.62.1.87.29l.61-.61c-.41-.37-.88-.54-1.48-.54-1.23,0-2.26,1.01-2.26,2.2,0,1.29.93,2.2,2.26,2.2.54,0,1.07-.21,1.46-.57l-.61-.59c-.24.2-.55.31-.85.31h0Z"/>
          <path class="cls-2" d="M53.7,62.37c-1.2,0-2.21.98-2.21,2.15,0,1.26.91,2.15,2.21,2.15,1.2,0,2.21-.99,2.21-2.15,0-1.26-.91-2.15-2.21-2.15ZM53.7,65.83c-.74,0-1.3-.57-1.3-1.32s.56-1.32,1.3-1.32,1.3.55,1.3,1.32-.56,1.32-1.3,1.32Z"/>
          <path class="cls-2" d="M71.96,62.46c-1.22,0-2.24,1-2.24,2.18,0,1.3.86,2.18,2.14,2.18.5,0,.96-.17,1.22-.44l.23-.24v.58h.9v-2.07c0-1.28-.92-2.18-2.24-2.18h0ZM71.96,65.98c-.74,0-1.32-.59-1.32-1.34s.57-1.34,1.32-1.34,1.32.56,1.32,1.34-.57,1.34-1.32,1.34Z"/>
          <polygon class="cls-2" points="69.02 62.63 67.43 66.63 66.53 66.63 65.87 64.79 65.18 66.63 64.29 66.63 62.67 62.63 63.64 62.63 64.76 65.63 65.45 63.74 65.45 63.73 65.03 62.63 65.94 62.63 66.94 65.63 68.05 62.63 69.02 62.63"/>
        </g>
      </g>
    </g>
  </g>
</svg>