<svg width="36" height="31" viewBox="0 0 36 31" fill="none" xmlns="http://www.w3.org/2000/svg">
<line x1="0.298234" y1="22.8257" x2="34.7694" y2="29.8257" stroke="#F3F1EF"/>
<line x1="0.0999687" y1="29.8255" x2="34.8406" y2="22.8255" stroke="#F3F1EF"/>
<path d="M0.428406 16.1771L10.007 0.257782L10.546 5.12203L14.5941 2.07974L13.2447 8.21746C13.2447 8.21746 17.4941 2.34924 25.7233 4.30595C32.5841 5.93622 34.6698 12.518 34.6698 16.1771" stroke="#F3F1EF" stroke-linejoin="bevel"/>
<path d="M5.54506 16.3157V10.8857H6.29506L6.38506 11.6757H6.40506C6.64506 11.4157 6.90506 11.1957 7.18506 11.0157C7.47173 10.8357 7.77506 10.7457 8.09506 10.7457C8.51506 10.7457 8.84173 10.839 9.07506 11.0257C9.30839 11.2123 9.48173 11.4657 9.59506 11.7857C9.88173 11.479 10.1684 11.229 10.4551 11.0357C10.7484 10.8423 11.0617 10.7457 11.3951 10.7457C11.9484 10.7457 12.3584 10.929 12.6251 11.2957C12.8984 11.6557 13.0351 12.1823 13.0351 12.8757V16.3157H12.1251V12.9957C12.1251 12.4823 12.0417 12.1123 11.8751 11.8857C11.7151 11.659 11.4617 11.5457 11.1151 11.5457C10.9084 11.5457 10.6917 11.6157 10.4651 11.7557C10.2451 11.889 10.0051 12.0957 9.74506 12.3757V16.3157H8.83506V12.9957C8.83506 12.4823 8.75173 12.1123 8.58506 11.8857C8.42506 11.659 8.17173 11.5457 7.82506 11.5457C7.61839 11.5457 7.40173 11.6157 7.17506 11.7557C6.94839 11.889 6.71173 12.0957 6.46506 12.3757V16.3157H5.54506ZM17.0029 16.4457C16.5162 16.4457 16.0762 16.3323 15.6829 16.1057C15.2895 15.879 14.9762 15.5557 14.7429 15.1357C14.5162 14.709 14.4029 14.199 14.4029 13.6057C14.4029 13.159 14.4695 12.7623 14.6029 12.4157C14.7362 12.0623 14.9162 11.7623 15.1429 11.5157C15.3762 11.2623 15.6395 11.0723 15.9329 10.9457C16.2262 10.8123 16.5262 10.7457 16.8329 10.7457C17.2995 10.7457 17.6929 10.849 18.0129 11.0557C18.3329 11.2623 18.5762 11.559 18.7429 11.9457C18.9162 12.3257 19.0029 12.7757 19.0029 13.2957C19.0029 13.3957 18.9995 13.489 18.9929 13.5757C18.9862 13.6623 18.9762 13.7423 18.9629 13.8157H15.3029C15.3229 14.2023 15.4095 14.539 15.5629 14.8257C15.7229 15.1057 15.9329 15.3257 16.1929 15.4857C16.4529 15.639 16.7562 15.7157 17.1029 15.7157C17.3695 15.7157 17.6095 15.679 17.8229 15.6057C18.0429 15.5257 18.2562 15.419 18.4629 15.2857L18.7829 15.8957C18.5495 16.049 18.2862 16.179 17.9929 16.2857C17.6995 16.3923 17.3695 16.4457 17.0029 16.4457ZM15.2929 13.1657H18.2029C18.2029 12.619 18.0829 12.2023 17.8429 11.9157C17.6095 11.6223 17.2795 11.4757 16.8529 11.4757C16.5995 11.4757 16.3595 11.5423 16.1329 11.6757C15.9129 11.809 15.7262 11.999 15.5729 12.2457C15.4262 12.4923 15.3329 12.799 15.2929 13.1657ZM20.34 16.3157V10.8857H21.09L21.18 11.6757H21.2C21.46 11.4157 21.7333 11.1957 22.02 11.0157C22.3133 10.8357 22.6466 10.7457 23.02 10.7457C23.5933 10.7457 24.0133 10.929 24.28 11.2957C24.5466 11.6557 24.68 12.1823 24.68 12.8757V16.3157H23.77V12.9957C23.77 12.4823 23.6866 12.1123 23.52 11.8857C23.36 11.659 23.1 11.5457 22.74 11.5457C22.46 11.5457 22.21 11.6157 21.99 11.7557C21.77 11.8957 21.5266 12.1023 21.26 12.3757V16.3157H20.34ZM28.0335 16.4457C27.4602 16.4457 27.0368 16.2657 26.7635 15.9057C26.4968 15.5457 26.3635 15.019 26.3635 14.3257V10.8857H27.2835V14.2157C27.2835 14.7157 27.3635 15.0823 27.5235 15.3157C27.6835 15.5423 27.9435 15.6557 28.3035 15.6557C28.5835 15.6557 28.8335 15.5823 29.0535 15.4357C29.2735 15.289 29.5135 15.0557 29.7735 14.7357V10.8857H30.6835V16.3157H29.9235L29.8535 15.4657H29.8235C29.5702 15.759 29.3002 15.9957 29.0135 16.1757C28.7335 16.3557 28.4068 16.4457 28.0335 16.4457Z" fill="#F3F1EF"/>
</svg>
