<?xml version="1.0" encoding="UTF-8"?>
<svg id="_レイヤー_2" data-name="レイヤー 2" xmlns="http://www.w3.org/2000/svg" viewBox="0 0 241.84 432.28">
  <defs>
    <style>
      .cls-1 {
        fill: #817779;
      }

      .cls-2 {
        fill: #fff;
      }

      .cls-3 {
        fill: none;
        stroke: #fff;
        stroke-linejoin: bevel;
        stroke-width: 3px;
      }
    </style>
  </defs>
  <g id="fv-copy">
    <g>
      <g id="main-copy01">
        <g>
          <path class="cls-2" d="M121.79,185.87v19.15h-5.1v-16.18c-5.99,3.08-13.1,5.6-21.28,7l-1.4-4.98c20.05-3.08,36.57-14.78,40.94-25.65h-26.49v-5.1h13.05v-4.03h5.1v4.03h14.11v3.86c-2.02,6.72-8.34,15.23-18.93,21.9ZM140.6,193.21l-13.27-5.82,1.85-4.54,13.22,5.6-1.79,4.76Z"/>
          <path class="cls-2" d="M95.52,259.4v-5.04h39.98v-29.4h-30.69v-5.1h35.78v39.54h-45.08Z"/>
          <path class="cls-2" d="M121.7,298.76c-.13-.48-.42-1.09-.86-1.82-.44-.73-.87-1.29-1.3-1.66,2.4-.37,4.44-1.07,6.12-2.08,1.68-1.01,2.98-2.25,3.9-3.72.92-1.47,1.42-3.05,1.5-4.76.08-1.6-.14-3.07-.66-4.42-.52-1.35-1.26-2.53-2.22-3.54s-2.07-1.82-3.34-2.42c-1.27-.6-2.62-.94-4.06-1.02-.19,2.59-.57,5.2-1.16,7.84-.59,2.64-1.38,5.09-2.38,7.36-1,2.27-2.19,4.16-3.58,5.68-.93,1.01-1.87,1.61-2.82,1.8s-1.94.07-2.98-.36c-1.01-.43-1.92-1.13-2.72-2.1-.8-.97-1.41-2.14-1.84-3.5-.43-1.36-.6-2.83-.52-4.4.13-2.35.69-4.51,1.66-6.48.97-1.97,2.29-3.67,3.94-5.1,1.65-1.43,3.55-2.51,5.68-3.24,2.13-.73,4.41-1.03,6.84-.9,1.92.11,3.73.55,5.44,1.32,1.71.77,3.21,1.83,4.52,3.16,1.31,1.33,2.31,2.89,3.02,4.68.71,1.79,1.01,3.76.9,5.92-.19,3.47-1.43,6.4-3.72,8.8-2.29,2.4-5.41,4.05-9.36,4.96ZM108.9,291.92c.29.19.64.27,1.04.26.4-.01.79-.22,1.16-.62,1.04-1.09,1.98-2.59,2.82-4.48.84-1.89,1.54-4.01,2.1-6.36.56-2.35.92-4.73,1.08-7.16-2.03.37-3.83,1.15-5.4,2.32-1.57,1.17-2.83,2.61-3.76,4.32-.93,1.71-1.45,3.57-1.56,5.6-.08,1.47.13,2.74.64,3.82.51,1.08,1.13,1.85,1.88,2.3Z"/>
          <path class="cls-2" d="M111.04,353.78c-.06-.61-.19-1.37-.38-2.28-.19-.91-.4-1.62-.62-2.14h5.09c.67,0,1.15-.12,1.44-.36s.43-.68.43-1.32v-8.88h-19.92v-4.22h19.92v-6h-15.98v-4.13h15.98v-6.19c-2.78.22-5.57.4-8.35.53s-5.44.19-7.97.19c-.1-.54-.25-1.26-.46-2.16-.21-.9-.41-1.57-.6-2.02,2.08.06,4.34.07,6.77.02,2.43-.05,4.93-.17,7.49-.36,2.56-.19,5.06-.43,7.49-.72,2.43-.29,4.69-.65,6.77-1.08,2.08-.43,3.86-.92,5.33-1.46l2.78,3.74c-2.02.64-4.26,1.19-6.74,1.66s-5.08.86-7.8,1.18v6.67h14.98v4.13h-14.98v6h18.91v4.22h-18.91v10.42c0,1.57-.44,2.72-1.32,3.46s-2.22,1.1-4.01,1.1h-5.33Z"/>
        </g>
        <polyline class="cls-3" points="158.39 155.07 158.39 188.14 171.98 197.2 158.39 202.87 171.98 212.04 158.39 217.7 158.39 357.01"/>
      </g>
      <g id="main-copy02">
        <g>
          <path class="cls-2" d="M9.41,240.71v-7.84c-1.05.82-2.09,1.61-3.14,2.35-1.05.75-2.05,1.4-3.02,1.96-.19-.3-.48-.68-.87-1.15-.39-.47-.8-.93-1.23-1.4-.43-.47-.81-.81-1.15-1.04,1.79-.9,3.59-2.05,5.4-3.47,1.81-1.42,3.48-2.93,5.01-4.54,1.53-1.6,2.74-3.14,3.64-4.59l4.09,2.35c-.49.82-1.07,1.64-1.76,2.46-.69.82-1.43,1.66-2.21,2.52v12.38h-4.76ZM47.6,273.02c-1.53-.37-3.23-.92-5.1-1.62s-3.73-1.51-5.6-2.41c-1.87-.9-3.55-1.81-5.04-2.74l1.57-2.02h-14.11l1.62,2.07c-1.46.9-3.11,1.77-4.96,2.63s-3.72,1.64-5.63,2.35c-1.9.71-3.71,1.27-5.43,1.68-.22-.49-.57-1.18-1.04-2.07-.47-.9-.91-1.55-1.32-1.96,1.46-.3,3-.69,4.62-1.18,1.62-.48,3.21-1.04,4.76-1.65,1.55-.62,2.94-1.24,4.17-1.88h-5.88v-22.51h28.56c-3.55-2.05-6.59-4.96-9.13-8.74l-13.5.67-.28-4.03,11.48-.62c-.56-1.12-1.09-2.3-1.6-3.53-.5-1.23-.96-2.52-1.37-3.86l4.82-.39c.78,2.73,1.85,5.23,3.19,7.5l8.51-.45c-.9-.67-1.95-1.4-3.16-2.18-1.21-.78-2.25-1.38-3.11-1.79l2.46-3.14c1.12.6,2.38,1.33,3.78,2.21,1.4.88,2.51,1.67,3.33,2.38-.26.22-.59.58-.98,1.06-.39.49-.74.95-1.04,1.4l7.73-.39.22,4.03-14.95.78c1.42,1.68,3,3.13,4.76,4.34,1.75,1.21,3.68,2.14,5.77,2.77.45-.93.88-1.95,1.29-3.05.41-1.1.75-2.06,1.01-2.88.22.15.6.36,1.12.64s1.06.54,1.62.78c.56.24.99.42,1.29.53-.37,1.27-.86,2.61-1.46,4.03-.6,1.42-1.21,2.61-1.85,3.58-.37.6-.92.94-1.62,1.04-.71.09-1.49,0-2.35-.25-.37-.11-.76-.22-1.15-.34s-.79-.24-1.2-.39v20.78h-5.21c1.27.64,2.66,1.26,4.17,1.88,1.51.62,3.02,1.16,4.54,1.62,1.51.47,2.88.83,4.12,1.09-.37.48-.82,1.18-1.34,2.07-.52.9-.9,1.6-1.12,2.13ZM15.29,248.16h22.12v-2.69H15.29v2.69ZM15.29,254.26h22.12v-2.86H15.29v2.86ZM15.29,260.48h22.12v-2.97H15.29v2.97Z"/>
          <path class="cls-2" d="M3.81,332.72v-19.71h5.26v14.67h14.56v-18.59H5.66v-19.77h5.43v14.84h12.54v-19.21h5.32v19.21h12.43v-14.84h5.49v19.77h-17.92v18.59h14.5v-14.67h5.32v19.71H3.81Z"/>
          <path class="cls-2" d="M30.64,381.86c-.11-.43-.3-.95-.58-1.58-.28-.63-.61-1.15-.98-1.58,3.44-.48,6.08-1.53,7.92-3.16,1.84-1.63,2.76-3.61,2.76-5.96,0-1.57-.44-2.89-1.32-3.96s-2.09-1.85-3.64-2.36c-2.11,3.97-4.48,7.28-7.12,9.92.16.56.33,1.11.52,1.64s.39,1.05.6,1.56c-.48.11-1.06.31-1.74.62-.68.31-1.19.59-1.54.86-.13-.35-.26-.69-.38-1.04s-.25-.69-.38-1.04c-1.52,1.17-3.01,2.03-4.48,2.58-1.47.55-2.81.73-4.04.54-.51-.08-1.01-.29-1.52-.62-.51-.33-.93-.83-1.26-1.48-.33-.65-.5-1.51-.5-2.58,0-1.92.43-3.73,1.3-5.42.87-1.69,2.05-3.21,3.56-4.54,1.51-1.33,3.22-2.39,5.14-3.16,0-.91.02-1.8.06-2.68s.09-1.73.14-2.56c-1.71.13-3.31.22-4.8.26-1.49.04-2.71.02-3.64-.06l-.32-3.4c1.01.11,2.33.16,3.94.16s3.31-.05,5.1-.16c.13-1.04.27-2.03.4-2.98.13-.95.28-1.83.44-2.66l3.44.64c-.16.72-.31,1.47-.44,2.24-.13.77-.25,1.59-.36,2.44,2-.21,3.93-.48,5.78-.8s3.39-.69,4.62-1.12l.4,3.24c-1.33.4-2.99.77-4.98,1.1-1.99.33-4.05.61-6.18.82-.11,1.44-.19,2.93-.24,4.48.64-.13,1.29-.24,1.96-.32.67-.08,1.33-.12,2-.12.43,0,.85.01,1.26.04s.82.07,1.22.12c.45-1.01.85-2.05,1.2-3.12l3.32.96c-.19.48-.37.96-.56,1.44-.19.48-.39.96-.6,1.44,2.24.69,4.03,1.81,5.36,3.36,1.33,1.55,2,3.47,2,5.76,0,2.16-.52,4.08-1.56,5.76s-2.52,3.07-4.44,4.16-4.2,1.87-6.84,2.32ZM19.36,375.13c1.28-.45,2.79-1.43,4.52-2.92-.24-1.25-.43-2.54-.58-3.86-.15-1.32-.25-2.66-.3-4.02-1.95,1.01-3.53,2.34-4.76,3.98-1.23,1.64-1.84,3.41-1.84,5.3,0,1.04.29,1.63.86,1.76.57.13,1.27.05,2.1-.24ZM26.88,369.21c.77-.93,1.55-1.95,2.34-3.04.79-1.09,1.51-2.27,2.18-3.52-.19-.03-.37-.04-.56-.04h-.56c-1.36,0-2.67.16-3.92.48.03,1.04.09,2.07.18,3.1s.21,2.03.34,3.02Z"/>
          <path class="cls-2" d="M25.2,426.94c-.29-.51-.71-1.05-1.24-1.64-.53-.59-1.04-1.05-1.52-1.4,3.57-1.52,6.35-3.77,8.34-6.76,1.99-2.99,2.98-6.56,2.98-10.72,0-1.89-.23-3.38-.68-4.46s-1.05-1.84-1.8-2.28c-.75-.44-1.57-.62-2.48-.54-1.01.08-1.99.69-2.92,1.82-.93,1.13-1.63,2.71-2.1,4.72-.47,2.01-.54,4.39-.22,7.14-.24,0-.6.05-1.08.14-.48.09-.93.19-1.36.28s-.73.18-.92.26c-.13-.96-.25-2.16-.36-3.6-.11-1.44-.18-2.98-.22-4.62-.04-1.64-.06-3.28-.06-4.92s.03-3.17.08-4.58c.05-1.41.13-2.57.24-3.48l3.76.36c-.16.69-.3,1.6-.42,2.72-.12,1.12-.21,2.32-.26,3.6-.05,1.28-.09,2.51-.12,3.68.56-1.92,1.44-3.53,2.64-4.82,1.2-1.29,2.53-1.97,4-2.02,1.49-.08,2.85.25,4.08,1,1.23.75,2.2,1.91,2.92,3.5.72,1.59,1.08,3.62,1.08,6.1,0,4.85-1.09,8.97-3.26,12.34-2.17,3.37-5.21,6.1-9.1,8.18Z"/>
        </g>
        <line class="cls-3" x1="68.08" y1="221" x2="68.08" y2="432.28"/>
      </g>
      <g id="copy-badge">
        <rect class="cls-1" x="123.58" width="118.27" height="33.79"/>
        <g>
          <path class="cls-2" d="M147.06,15.87v-5.04h-8.11v3.5h-1.49v-4.63h9.6v-1.8h-8.52v-1.22h18.77v1.22h-8.76v1.8h9.82v4.63h-1.49v-3.5h-8.33v5.04h-1.49ZM149.12,27.37c-.77,0-1.3-.12-1.6-.36-.3-.24-.44-.62-.44-1.13v-2.11h-7.37v-6.84h16.2v6.84h-7.34v1.61c0,.19.06.34.19.46.13.11.38.17.74.17h6.14c.46,0,.84-.06,1.12-.19.28-.13.5-.4.66-.83s.27-1.08.34-1.96c.18.1.4.2.67.3.27.1.51.19.72.25-.11,1.14-.3,1.97-.56,2.51-.26.54-.61.88-1.03,1.04-.42.16-.96.24-1.6.24h-6.84ZM140.34,13.16v-1.1h5.16v1.1h-5.16ZM140.34,15.42v-1.08h5.16v1.08h-5.16ZM141.18,19.83h5.9v-1.8h-5.9v1.8ZM141.18,22.67h5.9v-1.8h-5.9v1.8ZM148.57,19.83h5.86v-1.8h-5.86v1.8ZM148.57,22.67h5.86v-1.8h-5.86v1.8ZM150.13,13.16v-1.1h5.14v1.1h-5.14ZM150.13,15.42v-1.08h5.14v1.08h-5.14Z"/>
          <path class="cls-2" d="M162.06,26.7l-1.25-.84c.32-.43.68-.98,1.08-1.64.4-.66.8-1.37,1.19-2.12.39-.75.75-1.48,1.08-2.17.33-.7.57-1.28.73-1.76.08.05.2.14.35.26.15.13.3.26.46.38s.27.21.35.24c-.14.43-.38.99-.7,1.67-.32.68-.68,1.4-1.08,2.16-.4.76-.8,1.48-1.19,2.16-.39.68-.73,1.24-1.02,1.67ZM164.87,15.56c-.29-.27-.66-.58-1.12-.92-.46-.34-.93-.67-1.42-.97-.49-.3-.92-.54-1.28-.7l.77-1.13c.4.18.84.41,1.33.7.49.29.96.6,1.43.92.46.33.86.64,1.18.95-.05.05-.14.16-.26.32-.13.17-.26.33-.38.49-.13.16-.21.27-.24.34ZM166.02,10.28c-.29-.27-.66-.58-1.13-.92-.46-.34-.94-.67-1.42-.98-.48-.31-.9-.55-1.27-.71l.77-1.08c.38.18.82.41,1.31.7s.97.6,1.45.94c.48.34.87.66,1.18.96-.05.05-.14.15-.27.3-.13.15-.26.31-.38.47-.13.16-.21.27-.24.34ZM173.58,27.49c-.03-.21-.08-.46-.16-.74s-.15-.51-.23-.67h1.37c.32,0,.55-.06.7-.19s.21-.34.21-.65v-5.86h-4.15v-8.5h3.17c.16-.42.33-.88.52-1.4.18-.52.33-.98.44-1.38h-6.05v6.29c0,2.05-.11,3.82-.31,5.33-.21,1.5-.54,2.84-1.01,4.01-.46,1.17-1.08,2.28-1.85,3.34-.05-.05-.16-.13-.35-.24s-.37-.23-.55-.35c-.19-.12-.32-.2-.4-.23.74-.93,1.32-1.93,1.76-3.01s.76-2.33.96-3.76c.2-1.42.3-3.12.3-5.09v-7.66h14.54v1.37h-5.45c-.14.43-.3.9-.48,1.42-.18.51-.35.97-.5,1.37h4.97v8.5h-4.1v6.17c0,.66-.17,1.14-.52,1.46-.35.32-.89.48-1.64.48h-1.2ZM170.08,26.29c-.03-.06-.12-.16-.28-.3s-.31-.27-.47-.41c-.16-.14-.28-.23-.36-.28.46-.4.93-.88,1.4-1.43.47-.55.9-1.12,1.3-1.7.39-.58.69-1.11.9-1.57l1.2.7c-.26.53-.58,1.09-.98,1.69-.4.6-.83,1.19-1.29,1.76-.46.58-.94,1.09-1.42,1.54ZM172.79,14.48h6.82v-2.3h-6.82v2.3ZM172.79,18.08h6.82v-2.38h-6.82v2.38ZM182.12,26.17c-.46-.45-.93-.96-1.39-1.54-.46-.58-.89-1.17-1.28-1.78-.39-.61-.72-1.18-.97-1.73l1.22-.65c.22.46.52.98.9,1.56.38.58.79,1.14,1.26,1.7.46.56.92,1.04,1.37,1.44-.06.03-.18.12-.34.26-.16.14-.31.28-.47.42s-.25.24-.3.3Z"/>
          <path class="cls-2" d="M197.13,26.87c-.05-.19-.14-.42-.26-.7-.13-.27-.28-.49-.46-.65,2.13-.34,3.79-1.03,5-2.08,1.21-1.05,1.81-2.31,1.81-3.78,0-1.12-.34-2.03-1.02-2.72-.68-.7-1.6-1.18-2.75-1.45-.62,1.22-1.3,2.34-2.03,3.37-.73,1.03-1.48,1.95-2.24,2.75.1.38.2.76.32,1.12s.24.7.37,1.02c-.21.05-.46.14-.76.26-.3.13-.52.24-.66.34-.1-.24-.19-.49-.28-.74s-.17-.52-.25-.79c-.98.83-1.92,1.45-2.83,1.85-.91.4-1.72.54-2.42.43-.24-.05-.5-.15-.77-.31-.27-.16-.5-.42-.68-.77s-.28-.82-.28-1.42c0-1.15.26-2.24.79-3.26.53-1.02,1.26-1.94,2.18-2.75.93-.81,1.98-1.44,3.14-1.88,0-1.18.05-2.33.14-3.43-1.09.08-2.11.14-3.07.17s-1.74.04-2.35.02l-.17-1.46c.62.06,1.44.08,2.46.06,1.02-.02,2.1-.08,3.25-.18.08-.67.16-1.31.24-1.92.08-.61.18-1.16.29-1.66l1.49.29c-.11.45-.21.94-.3,1.48s-.17,1.1-.25,1.69c1.23-.13,2.41-.29,3.54-.48s2.06-.41,2.8-.65l.24,1.39c-.8.24-1.8.45-3,.64-1.2.18-2.44.34-3.72.47-.05.5-.08,1.01-.11,1.54-.02.53-.04,1.06-.06,1.58.82-.19,1.66-.29,2.52-.29.54,0,1.08.02,1.61.07.13-.3.26-.61.4-.92.14-.31.26-.63.37-.95l1.37.43c-.11.29-.23.58-.35.86-.12.29-.24.57-.37.84,1.41.35,2.55.98,3.43,1.88.88.9,1.32,2.08,1.32,3.52,0,1.84-.68,3.38-2.05,4.62s-3.24,2.09-5.6,2.56ZM190.65,23.32c.42-.18.87-.44,1.37-.79.5-.35,1.02-.78,1.56-1.27-.16-.8-.28-1.64-.35-2.51s-.12-1.76-.16-2.65c-.9.4-1.7.92-2.4,1.57-.7.65-1.26,1.38-1.66,2.18-.4.81-.6,1.66-.6,2.56,0,.5.1.84.31,1.02.21.18.48.26.82.22s.7-.15,1.1-.32ZM194.85,19.93c.56-.64,1.11-1.35,1.64-2.12.54-.78,1.04-1.62,1.52-2.53-.16-.02-.32-.03-.49-.04-.17,0-.34-.01-.52-.01-.86,0-1.7.12-2.52.36.03.74.07,1.47.12,2.2.05.73.13,1.44.24,2.15Z"/>
          <path class="cls-2" d="M217.91,26.99c-.13-.22-.3-.45-.52-.68-.22-.23-.42-.43-.61-.59,1.38-.66,2.57-1.51,3.58-2.57,1.01-1.06,1.79-2.28,2.34-3.66.55-1.38.83-2.91.83-4.57,0-1.25-.15-2.22-.44-2.92-.3-.7-.68-1.18-1.16-1.45-.48-.27-1.02-.38-1.61-.34-.46.05-.93.28-1.39.71-.46.42-.88,1.01-1.25,1.75-.37.74-.64,1.61-.8,2.6s-.2,2.08-.08,3.26c-.08,0-.22.02-.43.07s-.41.09-.6.13c-.19.04-.32.08-.38.11-.08-.58-.14-1.28-.18-2.1-.04-.82-.07-1.7-.08-2.64-.02-.94-.02-1.87-.01-2.8,0-.93.03-1.8.07-2.62.04-.82.09-1.5.16-2.04l1.58.17c-.1.43-.18,1.02-.24,1.78-.06.75-.11,1.56-.14,2.44-.03.87-.06,1.69-.07,2.46.21-.86.52-1.64.92-2.34.41-.7.88-1.25,1.43-1.67s1.11-.64,1.7-.67c.82-.06,1.57.1,2.27.5.7.4,1.26,1.06,1.68,1.97.42.91.64,2.12.64,3.62,0,2.75-.63,5.14-1.9,7.16-1.26,2.02-3.02,3.66-5.28,4.91Z"/>
        </g>
      </g>
      <g id="copy-badge-2" data-name="copy-badge">
        <rect class="cls-1" x="113.48" y="44.09" width="128.36" height="33.79"/>
        <g>
          <path class="cls-2" d="M130.63,70.11l-4.1-16.8h1.51l3.36,14.11,3.96-14.11h1.2l3.96,14.11,3.34-14.11h1.54l-4.13,16.8h-1.32l-4.01-14.09-3.96,14.09h-1.34Z"/>
          <path class="cls-2" d="M148.99,56.12c-.3,0-.57-.11-.79-.32-.22-.22-.34-.48-.34-.78s.11-.58.34-.79c.22-.21.49-.31.79-.31s.56.1.77.31c.21.21.31.47.31.79s-.1.56-.31.78-.46.32-.77.32ZM148.27,70.11v-11.5h1.44v11.5h-1.44Z"/>
          <path class="cls-2" d="M153.55,64.73v-1.44h6.77v1.44h-6.77Z"/>
          <path class="cls-2" d="M164.01,70.11v-16.8h10.51v1.39h-9.05v6.1h8.26v1.44h-8.26v7.87h-1.46Z"/>
          <path class="cls-2" d="M178.12,56.12c-.3,0-.57-.11-.79-.32-.22-.22-.34-.48-.34-.78s.11-.58.34-.79c.22-.21.49-.31.79-.31s.56.1.77.31c.21.21.31.47.31.79s-.1.56-.31.78-.46.32-.77.32ZM177.4,70.11v-11.5h1.44v11.5h-1.44Z"/>
          <path class="cls-2" d="M200.2,71.21c-.05-.19-.14-.42-.26-.7-.13-.27-.28-.49-.46-.65,2.13-.34,3.79-1.03,5-2.08,1.21-1.05,1.81-2.31,1.81-3.78,0-1.12-.34-2.03-1.02-2.72-.68-.7-1.6-1.18-2.75-1.45-.62,1.22-1.3,2.34-2.03,3.37-.73,1.03-1.48,1.95-2.24,2.75.1.38.2.76.32,1.12s.24.7.37,1.02c-.21.05-.46.14-.76.26-.3.13-.52.24-.66.34-.1-.24-.19-.49-.28-.74s-.17-.52-.25-.79c-.98.83-1.92,1.45-2.83,1.85-.91.4-1.72.54-2.42.43-.24-.05-.5-.15-.77-.31-.27-.16-.5-.42-.68-.77s-.28-.82-.28-1.42c0-1.15.26-2.24.79-3.26.53-1.02,1.26-1.94,2.18-2.75.93-.81,1.98-1.44,3.14-1.88,0-1.18.05-2.33.14-3.43-1.09.08-2.11.14-3.07.17s-1.74.04-2.35.02l-.17-1.46c.62.06,1.44.08,2.46.06,1.02-.02,2.1-.08,3.25-.18.08-.67.16-1.31.24-1.92.08-.61.18-1.16.29-1.66l1.49.29c-.11.45-.21.94-.3,1.48s-.17,1.1-.25,1.69c1.23-.13,2.41-.29,3.54-.48s2.06-.41,2.8-.65l.24,1.39c-.8.24-1.8.45-3,.64-1.2.18-2.44.34-3.72.47-.05.5-.08,1.01-.11,1.54-.02.53-.04,1.06-.06,1.58.82-.19,1.66-.29,2.52-.29.54,0,1.08.02,1.61.07.13-.3.26-.61.4-.92.14-.31.26-.63.37-.95l1.37.43c-.11.29-.23.58-.35.86-.12.29-.24.57-.37.84,1.41.35,2.55.98,3.43,1.88.88.9,1.32,2.08,1.32,3.52,0,1.84-.68,3.38-2.05,4.62s-3.24,2.09-5.6,2.56ZM193.72,67.66c.42-.18.87-.44,1.37-.79.5-.35,1.02-.78,1.56-1.27-.16-.8-.28-1.64-.35-2.51s-.12-1.76-.16-2.65c-.9.4-1.7.92-2.4,1.57-.7.65-1.26,1.38-1.66,2.18-.4.81-.6,1.66-.6,2.56,0,.5.1.84.31,1.02.21.18.48.26.82.22s.7-.15,1.1-.32ZM197.92,64.28c.56-.64,1.11-1.35,1.64-2.12.54-.78,1.04-1.62,1.52-2.53-.16-.02-.32-.03-.49-.04-.17,0-.34-.01-.52-.01-.86,0-1.7.12-2.52.36.03.74.07,1.47.12,2.2.05.73.13,1.44.24,2.15Z"/>
          <path class="cls-2" d="M220.99,71.33c-.13-.22-.3-.45-.52-.68-.22-.23-.42-.43-.61-.59,1.38-.66,2.57-1.51,3.58-2.57,1.01-1.06,1.79-2.28,2.34-3.66.55-1.38.83-2.91.83-4.57,0-1.25-.15-2.22-.44-2.92-.3-.7-.68-1.18-1.16-1.45-.48-.27-1.02-.38-1.61-.34-.46.05-.93.28-1.39.71-.46.42-.88,1.01-1.25,1.75-.37.74-.64,1.61-.8,2.6s-.2,2.08-.08,3.26c-.08,0-.22.02-.43.07s-.41.09-.6.13c-.19.04-.32.08-.38.11-.08-.58-.14-1.28-.18-2.1-.04-.82-.07-1.7-.08-2.64-.02-.94-.02-1.87-.01-2.8,0-.93.03-1.8.07-2.62.04-.82.09-1.5.16-2.04l1.58.17c-.1.43-.18,1.02-.24,1.78-.06.75-.11,1.56-.14,2.44-.03.87-.06,1.69-.07,2.46.21-.86.52-1.64.92-2.34.41-.7.88-1.25,1.43-1.67s1.11-.64,1.7-.67c.82-.06,1.57.1,2.27.5.7.4,1.26,1.06,1.68,1.97.42.91.64,2.12.64,3.62,0,2.75-.63,5.14-1.9,7.16-1.26,2.02-3.02,3.66-5.28,4.91Z"/>
        </g>
      </g>
      <g id="copy-badge-3" data-name="copy-badge">
        <rect class="cls-1" x="1.38" y="88.34" width="240.47" height="33.79"/>
        <g>
          <path class="cls-2" d="M25.6,113.73c-.03-.08-.11-.22-.23-.41-.12-.19-.25-.39-.4-.59-.14-.2-.26-.33-.34-.4,3.1-1.09,5.68-2.65,7.72-4.68,2.04-2.03,3.48-4.57,4.31-7.61-.64.02-1.44.04-2.39.06-.95.02-1.96.05-3.02.08-1.06.03-2.1.06-3.11.08-1.01.02-1.91.04-2.7.06s-1.38.03-1.76.05l-.12-1.7c.37.02.92.03,1.64.05.73.02,1.56.02,2.51.01.94,0,1.92-.02,2.92-.04,1-.02,1.96-.03,2.89-.05.93-.02,1.74-.04,2.45-.07s1.21-.06,1.51-.1l1.03.58c-.78,3.62-2.29,6.64-4.51,9.08-2.22,2.44-5.02,4.3-8.4,5.58Z"/>
          <path class="cls-2" d="M51.25,114.93c-.03-.08-.12-.21-.25-.4-.14-.18-.28-.37-.43-.55-.15-.18-.27-.31-.35-.37,2.5-1.09,4.36-2.58,5.58-4.46,1.22-1.89,1.84-4.31,1.84-7.27v-2.63c0-.47,0-.94-.01-1.39s-.01-.85-.01-1.18v-.59h1.61v5.78c0,2.13-.29,4-.85,5.63s-1.44,3.04-2.62,4.25-2.68,2.27-4.5,3.18ZM50.58,107.01s.02-.33.01-.85c0-.52-.01-1.18-.01-1.97s0-1.63-.01-2.51-.02-1.71-.04-2.5c-.02-.78-.03-1.44-.04-1.96,0-.52-.01-.8-.01-.85h1.56v.86c0,.51,0,1.16.01,1.94,0,.78.02,1.61.02,2.47,0,.86.02,1.69.02,2.47s.02,1.44.04,1.96c.02.52.02.82.02.9l-1.58.02Z"/>
          <path class="cls-2" d="M69.23,106.05v-1.56c.56,0,1.35,0,2.38.01,1.02,0,2.18.02,3.46.02,1.28,0,2.6.01,3.96.01h3.94c1.26,0,2.39,0,3.38-.01.99,0,1.74-.02,2.26-.04v1.56c-.53-.02-1.28-.03-2.27-.04-.98,0-2.1-.02-3.34-.02-1.24,0-2.53-.01-3.86-.01s-2.64,0-3.91.01c-1.27,0-2.43.02-3.47.02-1.04,0-1.88.02-2.52.04Z"/>
          <path class="cls-2" d="M100.91,114.74v-18.6h1.56v18.6h-1.56ZM109.55,107.42c-.46-.22-1.02-.51-1.66-.85-.64-.34-1.3-.72-1.99-1.12-.69-.4-1.33-.8-1.93-1.19-.6-.39-1.09-.73-1.48-1.02l.89-1.22c.4.29.9.62,1.49,1s1.23.76,1.91,1.14c.68.38,1.34.74,1.99,1.06.65.32,1.22.58,1.72.77-.06.06-.16.2-.3.4-.14.2-.26.4-.38.6-.12.2-.2.35-.25.44ZM109.69,101.42c-.21-.34-.48-.71-.82-1.12s-.68-.8-1.04-1.18c-.36-.38-.69-.68-1-.92l.84-.65c.27.22.6.54.97.94.38.4.74.81,1.1,1.22.36.42.64.76.83,1.03l-.89.67ZM111.64,99.72c-.21-.32-.49-.68-.84-1.08-.35-.4-.72-.78-1.09-1.14-.38-.36-.72-.65-1.02-.88l.82-.7c.27.21.6.51,1,.9s.78.79,1.15,1.2.66.75.85,1.02l-.86.67Z"/>
          <path class="cls-2" d="M123.25,114.93c-.03-.08-.12-.21-.25-.4-.14-.18-.28-.37-.43-.55-.15-.18-.27-.31-.35-.37,2.5-1.09,4.36-2.58,5.58-4.46,1.22-1.89,1.84-4.31,1.84-7.27v-2.63c0-.47,0-.94-.01-1.39s-.01-.85-.01-1.18v-.59h1.61v5.78c0,2.13-.28,4-.85,5.63s-1.44,3.04-2.62,4.25c-1.18,1.21-2.68,2.27-4.5,3.18ZM122.58,107.01s.02-.33.01-.85c0-.52-.01-1.18-.01-1.97s0-1.63-.01-2.51-.02-1.71-.04-2.5c-.02-.78-.03-1.44-.04-1.96,0-.52-.01-.8-.01-.85h1.56v.86c0,.51,0,1.16.01,1.94,0,.78.02,1.61.02,2.47,0,.86.02,1.69.02,2.47,0,.78.02,1.44.04,1.96.02.52.02.82.02.9l-1.58.02Z"/>
          <path class="cls-2" d="M147.49,102.52c-.16-.18-.42-.42-.79-.72s-.78-.62-1.22-.96c-.45-.34-.88-.64-1.28-.91-.41-.27-.74-.46-1-.58l1.01-1.3c.27.14.62.36,1.03.65s.85.59,1.3.91.86.62,1.22.91c.37.29.63.51.79.67l-1.06,1.32ZM144.33,113.25l-.84-1.51c1.14-.32,2.32-.76,3.54-1.32,1.22-.56,2.44-1.2,3.64-1.92,1.2-.72,2.34-1.48,3.43-2.29,1.09-.81,2.07-1.63,2.95-2.46s1.62-1.62,2.21-2.38c.03.08.1.23.2.46.1.22.22.44.34.66.12.22.2.36.23.44-.75.93-1.72,1.9-2.9,2.9s-2.49,1.99-3.91,2.94c-1.42.95-2.9,1.82-4.43,2.59-1.53.78-3.01,1.4-4.45,1.88Z"/>
          <path class="cls-2" d="M167.65,114.76c-.03-.08-.12-.21-.25-.4-.14-.18-.27-.37-.41-.55-.14-.18-.24-.31-.32-.37,2.02-.82,3.92-1.88,5.71-3.18,1.79-1.3,3.38-2.78,4.78-4.42,1.39-1.64,2.49-3.36,3.29-5.17-.45.02-.99.04-1.62.06-.63.02-1.27.04-1.91.06s-1.22.03-1.74.05c-.52.02-.9.02-1.14.02-.8,1.07-1.71,2.09-2.72,3.05-1.02.96-2.12,1.82-3.3,2.57-.05-.06-.15-.18-.3-.34-.15-.16-.31-.32-.48-.47-.17-.15-.3-.25-.4-.3,1.23-.72,2.38-1.59,3.46-2.6,1.07-1.02,2.02-2.12,2.84-3.3.82-1.18,1.46-2.37,1.91-3.55l1.46.53c-.21.51-.44,1.02-.68,1.51s-.52.98-.8,1.46c.51-.02,1.12-.03,1.82-.05.7-.02,1.4-.03,2.1-.05s1.29-.03,1.78-.05c.49-.02.77-.03.85-.05l.89.58c-.77,2.13-1.88,4.14-3.34,6.05-1.46,1.9-3.16,3.62-5.11,5.14-1.95,1.52-4.07,2.78-6.36,3.77Z"/>
          <path class="cls-2" d="M200.1,115.46c-.05-.19-.14-.42-.26-.7-.13-.27-.28-.49-.46-.65,2.13-.34,3.79-1.03,5-2.08,1.21-1.05,1.81-2.31,1.81-3.78,0-1.12-.34-2.03-1.02-2.72-.68-.7-1.6-1.18-2.75-1.45-.62,1.22-1.3,2.34-2.03,3.37-.73,1.03-1.48,1.95-2.24,2.75.1.38.2.76.32,1.12.12.36.24.7.37,1.02-.21.05-.46.14-.76.26-.3.13-.52.24-.66.34-.1-.24-.19-.49-.28-.74-.09-.25-.17-.52-.25-.79-.98.83-1.92,1.45-2.83,1.85-.91.4-1.72.54-2.42.43-.24-.05-.5-.15-.77-.31-.27-.16-.5-.42-.68-.77-.18-.35-.28-.82-.28-1.42,0-1.15.26-2.24.79-3.26.53-1.02,1.26-1.94,2.18-2.75s1.98-1.44,3.14-1.88c0-1.18.05-2.33.14-3.43-1.09.08-2.11.14-3.07.17-.96.03-1.74.04-2.35.02l-.17-1.46c.62.06,1.44.08,2.46.06,1.02-.02,2.1-.08,3.25-.18.08-.67.16-1.31.24-1.92.08-.61.18-1.16.29-1.66l1.49.29c-.11.45-.21.94-.3,1.48-.09.54-.17,1.1-.25,1.69,1.23-.13,2.41-.29,3.54-.48,1.13-.19,2.06-.41,2.8-.65l.24,1.39c-.8.24-1.8.45-3,.64-1.2.18-2.44.34-3.72.47-.05.5-.08,1.01-.11,1.54-.02.53-.04,1.06-.06,1.58.82-.19,1.66-.29,2.52-.29.54,0,1.08.02,1.61.07.13-.3.26-.61.4-.92.14-.31.26-.63.37-.95l1.37.43c-.11.29-.23.58-.35.86-.12.29-.24.57-.37.84,1.41.35,2.55.98,3.43,1.88.88.9,1.32,2.08,1.32,3.52,0,1.84-.68,3.38-2.05,4.62-1.37,1.24-3.24,2.09-5.6,2.56ZM193.62,111.91c.42-.18.87-.44,1.37-.79.5-.35,1.02-.78,1.56-1.27-.16-.8-.28-1.64-.35-2.51s-.12-1.76-.16-2.65c-.9.4-1.7.92-2.4,1.57-.7.65-1.26,1.38-1.66,2.18-.4.81-.6,1.66-.6,2.56,0,.5.1.84.31,1.02.21.18.48.26.82.22.34-.04.7-.15,1.1-.32ZM197.82,108.52c.56-.64,1.11-1.35,1.64-2.12.54-.78,1.04-1.62,1.52-2.53-.16-.02-.32-.03-.49-.04s-.34-.01-.52-.01c-.86,0-1.7.12-2.52.36.03.74.07,1.47.12,2.2.05.73.13,1.44.24,2.15Z"/>
          <path class="cls-2" d="M220.89,115.58c-.13-.22-.3-.45-.52-.68-.22-.23-.42-.43-.61-.59,1.38-.66,2.57-1.51,3.58-2.57,1.01-1.06,1.79-2.28,2.34-3.66.55-1.38.83-2.91.83-4.57,0-1.25-.15-2.22-.44-2.92-.3-.7-.68-1.18-1.16-1.45-.48-.27-1.02-.38-1.61-.34-.46.05-.93.28-1.39.71-.46.42-.88,1.01-1.25,1.75s-.64,1.61-.8,2.6-.2,2.08-.08,3.26c-.08,0-.22.02-.43.07-.21.05-.41.09-.6.13-.19.04-.32.08-.38.11-.08-.58-.14-1.28-.18-2.1s-.07-1.7-.08-2.64c-.02-.94-.02-1.87-.01-2.8,0-.93.03-1.8.07-2.62.04-.82.09-1.5.16-2.04l1.58.17c-.1.43-.18,1.02-.24,1.78-.06.75-.11,1.56-.14,2.44s-.06,1.69-.07,2.46c.21-.86.52-1.64.92-2.34.41-.7.88-1.25,1.43-1.67s1.11-.64,1.7-.67c.82-.06,1.57.1,2.27.5.7.4,1.26,1.06,1.68,1.97.42.91.64,2.12.64,3.62,0,2.75-.63,5.14-1.9,7.16s-3.02,3.66-5.28,4.91Z"/>
        </g>
      </g>
    </g>
  </g>
</svg>