<?xml version="1.0" encoding="UTF-8"?>
<svg id="_レイヤー_2" data-name="レイヤー 2" xmlns="http://www.w3.org/2000/svg" viewBox="0 0 376.98 291.03">
  <defs>
    <style>
      .cls-1 {
        fill: #817779;
      }
    </style>
  </defs>
  <g id="_線" data-name="線">
    <g>
      <path class="cls-1" d="M97.89,71.91v7.08h7.08v-7.08h-7.08Z"/>
      <path class="cls-1" d="M291.35,136.85l-2.8-6.31c11.29-4.21,17.37-13.55,17.37-29.99v-17.14h-52.03v22.35h-7.17v-29.44h66.36v24.22c0,19.39-7.95,30.84-21.73,36.29Z"/>
      <line class="cls-1" x1="98.29" y1="152.71" x2="91.25" y2="164.42"/>
      <polygon class="cls-1" points="124.49 123.83 117.45 120.87 123.12 111.44 124.49 123.83"/>
      <polygon class="cls-1" points="157.04 151.39 157.56 151.39 157.04 153.76 157.04 151.39"/>
      <path class="cls-1" d="M376.98,0H0v220.89h53.36l-16.13,26.81,5.72,3.43,18.19-30.24,4.01-6.66,55.74-92.63,3.59,32.36,5.32,2.3,27.9-20.97-9.77,44.42,5.95,2.68c.09-.13,9.16-12.45,26.57-22.55,23.23-13.49,49.51-16.88,78.12-10.07,39.59,9.41,59.74,38.05,68.76,64.47.77,2.24,1.46,4.46,2.06,6.66,2.98,10.71,4.17,20.72,4.17,28.53h6.66c0-7.87-1.13-17.82-3.96-28.53h40.73V0ZM157.1,169.02l2.24-10.18h10.3c-5.11,3.55-9.28,7.08-12.53,10.18ZM370.31,214.24h-36c-9.23-28.74-30.77-60.63-74.19-70.95-13.39-3.18-25.57-3.99-36.48-3.27v-39.58h-52.86v7.53h45.34v32.79c-13.67,1.86-25.07,6.04-34.05,10.63h-21.08l5.16-23.45-5.26-3.37-30.42,22.86-1.56-14.13,4.39,1.9,2.49-6.61-7.78-3.28-1.58-14.23-6.16-1.36-5.92,9.84-5.77-2.43-2.58,6.3,4.79,2.06-12.49,20.74v-24.91c14.71-9.26,23.51-21.11,26.32-30.45v-5.38h-44.87v7.08h36.84c-6.07,15.11-29.05,31.39-56.93,35.67l1.94,6.94c11.37-1.96,21.27-5.45,29.59-9.74v32.57l-33.82,56.21H6.66V6.66h363.65v207.58Z"/>
      <path class="cls-1" d="M37.75,261.25c-7.16,0-14.89,5.48-14.89,14.35v13.68h6.75v-13.68c0-4.64,3.45-8.13,8.01-8.13s8,3.42,8,8.13v13.68h6.76v-13.68c0-8.45-6.01-14.35-14.63-14.35Z"/>
      <path class="cls-1" d="M93.59,275.6c-.56-9.33-6.53-15.15-15.6-15.15-8.44,0-15.58,6.94-15.58,15.15,0,8.93,6.41,15.16,15.58,15.16,3.89,0,7.57-1.48,10.4-4.15l-4.26-4.39c-2.13,1.93-3.67,2.55-6.14,2.55-4.14,0-7.5-2.49-8.57-6.33l-.17-.56h24.34v-2.29ZM69.36,272.61l.2-.59c1.29-3.72,4.53-6.02,8.43-6.02,4.12,0,7.32,2.25,8.58,6.03l.19.58h-17.4Z"/>
      <path class="cls-1" d="M177.24,284.04c-5.25,0-9.2-4.01-9.2-9.34s3.94-9.34,9.2-9.34c2.21,0,4.28.71,6.03,2.05l4.26-4.26c-2.82-2.54-6.11-3.72-10.29-3.72-8.52,0-15.71,7.01-15.71,15.27,0,8.99,6.47,15.27,15.71,15.27,3.74,0,7.42-1.45,10.14-3.99l-4.23-4.12c-1.69,1.39-3.82,2.18-5.92,2.18Z"/>
      <path class="cls-1" d="M214.19,260.09c-8.33,0-15.37,6.83-15.37,14.93,0,8.79,6.33,14.94,15.37,14.94,8.33,0,15.37-6.85,15.37-14.94,0-8.79-6.33-14.93-15.37-14.93ZM214.19,284.18c-5.14,0-9.01-3.94-9.01-9.17s3.87-9.15,9.01-9.15,9.02,3.85,9.02,9.15-3.88,9.17-9.02,9.17Z"/>
      <path class="cls-1" d="M341.14,260.73c-8.46,0-15.58,6.93-15.58,15.15,0,9.06,5.96,15.15,14.85,15.15,3.49,0,6.66-1.15,8.49-3.09l1.57-1.67v4.02h6.28v-14.41c0-8.92-6.41-15.15-15.6-15.15ZM341.14,285.2c-5.14,0-9.16-4.1-9.16-9.32s3.94-9.3,9.16-9.3,9.18,3.91,9.18,9.3-3.96,9.32-9.18,9.32Z"/>
      <polygon class="cls-1" points="320.7 261.9 309.62 289.68 303.39 289.68 298.78 276.95 294.02 289.68 287.81 289.68 276.58 261.9 283.32 261.9 291.06 282.77 295.85 269.63 295.88 269.56 292.98 261.9 299.31 261.9 306.22 282.78 313.97 261.9 320.7 261.9"/>
    </g>
  </g>
</svg>