<svg width="14" height="46" viewBox="0 0 14 46" fill="none" xmlns="http://www.w3.org/2000/svg">
<path d="M13.7299 0.804706C13.532 0.536464 13.3341 0.268223 13.1363 -1.84476e-05C12.3422 0.420308 11.5819 0.876595 10.8344 1.38883C4.04976 5.93383 -0.100605 14.4461 0.00190258 22.8606C-0.0251672 31.2746 4.09763 39.7264 10.8408 44.3372C11.5834 44.8532 12.344 45.317 13.1342 45.7401C13.3334 45.4729 13.5327 45.2057 13.732 44.9385C13.128 44.3216 12.5656 43.6917 12.0282 43.0381C7.21244 37.1549 5.04148 29.9562 5.00187 22.8434C4.98405 15.7305 7.14478 8.54212 12.013 2.69592C12.5566 2.04446 13.1205 1.4202 13.7299 0.804706Z" fill="#DED762"/>
</svg>
