<svg width="36" height="30" viewBox="0 0 36 30" fill="none" xmlns="http://www.w3.org/2000/svg">
<path d="M15.5264 0L8.49233 13.4676C12.8672 13.4676 16.2984 16.9847 16.2984 21.3595C16.2984 25.6486 12.8672 29.1656 8.49233 29.1656C2.91656 29.1656 0 25.6486 0 20.3301C0 16.6415 1.54406 13.725 3.51703 9.95061L8.74968 0H15.5264ZM34.8271 0L27.7931 13.4676C32.1679 13.4676 35.5992 16.9847 35.5992 21.3595C35.5992 25.6486 32.1679 29.1656 27.7931 29.1656C22.2173 29.1656 19.3008 25.6486 19.3008 20.3301C19.3008 16.6415 20.8448 13.725 22.8178 9.95061L28.0504 0H34.8271Z" fill="#DED762"/>
</svg>
